<mxfile host="app.diagrams.net" modified="2024-03-07T16:22:21.120Z" agent="5.0 (Macintosh; Intel Mac OS X 10_15_7) AppleWebKit/537.36 (KHTML, like Gecko) Chrome/122.0.0.0 Safari/537.36" etag="jnApfUqj-uin8qAX7TLx" version="20.4.1" type="github">
  <diagram id="KJnayV7ZM33Jfx6mqHIE" name="Page-1">
    <mxGraphModel dx="2133" dy="2033" grid="1" gridSize="10" guides="1" tooltips="1" connect="1" arrows="1" fold="1" page="1" pageScale="1" pageWidth="827" pageHeight="1169" math="0" shadow="0">
      <root>
        <mxCell id="0" />
        <mxCell id="1" parent="0" />
        <mxCell id="iLdHwuGYIfyq-GvQSIh--1" value="Nhân viên" style="rounded=0;whiteSpace=wrap;html=1;" vertex="1" parent="1">
          <mxGeometry x="120" y="100" width="120" height="60" as="geometry" />
        </mxCell>
        <mxCell id="iLdHwuGYIfyq-GvQSIh--2" value="" style="endArrow=none;html=1;rounded=0;entryX=0;entryY=1;entryDx=0;entryDy=0;" edge="1" parent="1" target="iLdHwuGYIfyq-GvQSIh--1">
          <mxGeometry width="50" height="50" relative="1" as="geometry">
            <mxPoint x="70" y="190" as="sourcePoint" />
            <mxPoint x="440" y="210" as="targetPoint" />
            <Array as="points">
              <mxPoint x="70" y="190" />
            </Array>
          </mxGeometry>
        </mxCell>
        <mxCell id="iLdHwuGYIfyq-GvQSIh--3" value="&lt;u&gt;MãNV&lt;/u&gt;" style="ellipse;whiteSpace=wrap;html=1;" vertex="1" parent="1">
          <mxGeometry x="-20" y="190" width="120" height="80" as="geometry" />
        </mxCell>
        <mxCell id="iLdHwuGYIfyq-GvQSIh--4" value="TenNV" style="ellipse;whiteSpace=wrap;html=1;" vertex="1" parent="1">
          <mxGeometry x="-80" y="80" width="120" height="80" as="geometry" />
        </mxCell>
        <mxCell id="iLdHwuGYIfyq-GvQSIh--5" value="" style="endArrow=none;html=1;rounded=0;entryX=0;entryY=0.5;entryDx=0;entryDy=0;exitX=0.5;exitY=1;exitDx=0;exitDy=0;" edge="1" parent="1" source="iLdHwuGYIfyq-GvQSIh--4" target="iLdHwuGYIfyq-GvQSIh--1">
          <mxGeometry width="50" height="50" relative="1" as="geometry">
            <mxPoint x="410" y="260" as="sourcePoint" />
            <mxPoint x="460" y="210" as="targetPoint" />
          </mxGeometry>
        </mxCell>
        <mxCell id="iLdHwuGYIfyq-GvQSIh--6" value="Luong" style="ellipse;whiteSpace=wrap;html=1;" vertex="1" parent="1">
          <mxGeometry x="-50" y="-20" width="120" height="80" as="geometry" />
        </mxCell>
        <mxCell id="iLdHwuGYIfyq-GvQSIh--7" value="" style="endArrow=none;html=1;rounded=0;exitX=0;exitY=0.25;exitDx=0;exitDy=0;entryX=0.85;entryY=0.938;entryDx=0;entryDy=0;entryPerimeter=0;" edge="1" parent="1" source="iLdHwuGYIfyq-GvQSIh--1" target="iLdHwuGYIfyq-GvQSIh--6">
          <mxGeometry width="50" height="50" relative="1" as="geometry">
            <mxPoint x="520" y="230" as="sourcePoint" />
            <mxPoint x="570" y="180" as="targetPoint" />
          </mxGeometry>
        </mxCell>
        <mxCell id="iLdHwuGYIfyq-GvQSIh--8" value="MaBP" style="ellipse;whiteSpace=wrap;html=1;" vertex="1" parent="1">
          <mxGeometry x="70" y="-80" width="120" height="80" as="geometry" />
        </mxCell>
        <mxCell id="iLdHwuGYIfyq-GvQSIh--9" value="" style="endArrow=none;html=1;rounded=0;entryX=0;entryY=0;entryDx=0;entryDy=0;exitX=0;exitY=1;exitDx=0;exitDy=0;" edge="1" parent="1" source="iLdHwuGYIfyq-GvQSIh--8" target="iLdHwuGYIfyq-GvQSIh--1">
          <mxGeometry width="50" height="50" relative="1" as="geometry">
            <mxPoint x="520" y="230" as="sourcePoint" />
            <mxPoint x="570" y="180" as="targetPoint" />
          </mxGeometry>
        </mxCell>
        <mxCell id="iLdHwuGYIfyq-GvQSIh--10" value="Làm việc trong" style="rhombus;whiteSpace=wrap;html=1;" vertex="1" parent="1">
          <mxGeometry x="400" y="90" width="80" height="80" as="geometry" />
        </mxCell>
        <mxCell id="iLdHwuGYIfyq-GvQSIh--11" value="" style="endArrow=none;html=1;rounded=0;exitX=1;exitY=0.5;exitDx=0;exitDy=0;" edge="1" parent="1" source="iLdHwuGYIfyq-GvQSIh--1" target="iLdHwuGYIfyq-GvQSIh--10">
          <mxGeometry width="50" height="50" relative="1" as="geometry">
            <mxPoint x="520" y="230" as="sourcePoint" />
            <mxPoint x="570" y="180" as="targetPoint" />
          </mxGeometry>
        </mxCell>
        <mxCell id="iLdHwuGYIfyq-GvQSIh--12" value="n" style="text;html=1;resizable=0;autosize=1;align=center;verticalAlign=middle;points=[];fillColor=none;strokeColor=none;rounded=0;" vertex="1" parent="1">
          <mxGeometry x="295" y="95" width="30" height="30" as="geometry" />
        </mxCell>
        <mxCell id="iLdHwuGYIfyq-GvQSIh--13" value="" style="endArrow=none;html=1;rounded=0;exitX=1;exitY=0.5;exitDx=0;exitDy=0;" edge="1" parent="1" source="iLdHwuGYIfyq-GvQSIh--10">
          <mxGeometry width="50" height="50" relative="1" as="geometry">
            <mxPoint x="510" y="220" as="sourcePoint" />
            <mxPoint x="670" y="130" as="targetPoint" />
          </mxGeometry>
        </mxCell>
        <mxCell id="iLdHwuGYIfyq-GvQSIh--15" value="BoPhan" style="shape=process;whiteSpace=wrap;html=1;backgroundOutline=1;" vertex="1" parent="1">
          <mxGeometry x="670" y="100" width="120" height="60" as="geometry" />
        </mxCell>
        <mxCell id="iLdHwuGYIfyq-GvQSIh--16" value="1" style="text;html=1;resizable=0;autosize=1;align=center;verticalAlign=middle;points=[];fillColor=none;strokeColor=none;rounded=0;" vertex="1" parent="1">
          <mxGeometry x="575" y="90" width="30" height="30" as="geometry" />
        </mxCell>
        <mxCell id="iLdHwuGYIfyq-GvQSIh--17" value="MaQL" style="ellipse;whiteSpace=wrap;html=1;" vertex="1" parent="1">
          <mxGeometry x="840" y="200" width="120" height="80" as="geometry" />
        </mxCell>
        <mxCell id="iLdHwuGYIfyq-GvQSIh--18" value="&lt;u&gt;MaBP&lt;/u&gt;" style="ellipse;whiteSpace=wrap;html=1;" vertex="1" parent="1">
          <mxGeometry x="840" y="90" width="120" height="80" as="geometry" />
        </mxCell>
        <mxCell id="iLdHwuGYIfyq-GvQSIh--19" value="TenBP" style="ellipse;whiteSpace=wrap;html=1;" vertex="1" parent="1">
          <mxGeometry x="820" y="-20" width="120" height="80" as="geometry" />
        </mxCell>
        <mxCell id="iLdHwuGYIfyq-GvQSIh--20" value="" style="endArrow=none;html=1;rounded=0;exitX=1;exitY=0;exitDx=0;exitDy=0;entryX=0;entryY=1;entryDx=0;entryDy=0;" edge="1" parent="1" source="iLdHwuGYIfyq-GvQSIh--15" target="iLdHwuGYIfyq-GvQSIh--19">
          <mxGeometry width="50" height="50" relative="1" as="geometry">
            <mxPoint x="600" y="40" as="sourcePoint" />
            <mxPoint x="650" y="-10" as="targetPoint" />
          </mxGeometry>
        </mxCell>
        <mxCell id="iLdHwuGYIfyq-GvQSIh--21" value="" style="endArrow=none;html=1;rounded=0;exitX=1;exitY=0.5;exitDx=0;exitDy=0;entryX=0;entryY=0.5;entryDx=0;entryDy=0;" edge="1" parent="1" source="iLdHwuGYIfyq-GvQSIh--15" target="iLdHwuGYIfyq-GvQSIh--18">
          <mxGeometry width="50" height="50" relative="1" as="geometry">
            <mxPoint x="600" y="40" as="sourcePoint" />
            <mxPoint x="650" y="-10" as="targetPoint" />
          </mxGeometry>
        </mxCell>
        <mxCell id="iLdHwuGYIfyq-GvQSIh--22" value="" style="endArrow=none;html=1;rounded=0;exitX=1;exitY=0.75;exitDx=0;exitDy=0;entryX=0;entryY=0.5;entryDx=0;entryDy=0;" edge="1" parent="1" source="iLdHwuGYIfyq-GvQSIh--15" target="iLdHwuGYIfyq-GvQSIh--17">
          <mxGeometry width="50" height="50" relative="1" as="geometry">
            <mxPoint x="600" y="40" as="sourcePoint" />
            <mxPoint x="650" y="-10" as="targetPoint" />
          </mxGeometry>
        </mxCell>
        <mxCell id="iLdHwuGYIfyq-GvQSIh--23" value="" style="endArrow=none;html=1;rounded=0;entryX=0.5;entryY=1;entryDx=0;entryDy=0;" edge="1" parent="1" target="iLdHwuGYIfyq-GvQSIh--15">
          <mxGeometry width="50" height="50" relative="1" as="geometry">
            <mxPoint x="730" y="320" as="sourcePoint" />
            <mxPoint x="460" y="190" as="targetPoint" />
          </mxGeometry>
        </mxCell>
        <mxCell id="iLdHwuGYIfyq-GvQSIh--24" value="Có" style="rhombus;whiteSpace=wrap;html=1;" vertex="1" parent="1">
          <mxGeometry x="690" y="320" width="80" height="80" as="geometry" />
        </mxCell>
        <mxCell id="iLdHwuGYIfyq-GvQSIh--25" value="" style="endArrow=none;html=1;rounded=0;exitX=0.5;exitY=1;exitDx=0;exitDy=0;" edge="1" parent="1" source="iLdHwuGYIfyq-GvQSIh--24">
          <mxGeometry width="50" height="50" relative="1" as="geometry">
            <mxPoint x="410" y="240" as="sourcePoint" />
            <mxPoint x="730" y="560" as="targetPoint" />
          </mxGeometry>
        </mxCell>
        <mxCell id="iLdHwuGYIfyq-GvQSIh--26" value="Mat hang" style="shape=process;whiteSpace=wrap;html=1;backgroundOutline=1;" vertex="1" parent="1">
          <mxGeometry x="670" y="555" width="120" height="60" as="geometry" />
        </mxCell>
        <mxCell id="iLdHwuGYIfyq-GvQSIh--27" value="MatHang" style="rounded=0;whiteSpace=wrap;html=1;" vertex="1" parent="1">
          <mxGeometry x="670" y="555" width="120" height="60" as="geometry" />
        </mxCell>
        <mxCell id="iLdHwuGYIfyq-GvQSIh--28" value="n" style="text;html=1;resizable=0;autosize=1;align=center;verticalAlign=middle;points=[];fillColor=none;strokeColor=none;rounded=0;" vertex="1" parent="1">
          <mxGeometry x="730" y="470" width="30" height="30" as="geometry" />
        </mxCell>
        <mxCell id="iLdHwuGYIfyq-GvQSIh--29" value="1" style="text;html=1;resizable=0;autosize=1;align=center;verticalAlign=middle;points=[];fillColor=none;strokeColor=none;rounded=0;" vertex="1" parent="1">
          <mxGeometry x="735" y="265" width="30" height="30" as="geometry" />
        </mxCell>
        <mxCell id="iLdHwuGYIfyq-GvQSIh--30" value="" style="endArrow=none;html=1;rounded=0;exitX=1;exitY=0;exitDx=0;exitDy=0;" edge="1" parent="1" source="iLdHwuGYIfyq-GvQSIh--27">
          <mxGeometry width="50" height="50" relative="1" as="geometry">
            <mxPoint x="410" y="380" as="sourcePoint" />
            <mxPoint x="840" y="470" as="targetPoint" />
          </mxGeometry>
        </mxCell>
        <mxCell id="iLdHwuGYIfyq-GvQSIh--31" value="" style="endArrow=none;html=1;rounded=0;exitX=1;exitY=0.5;exitDx=0;exitDy=0;" edge="1" parent="1" source="iLdHwuGYIfyq-GvQSIh--27">
          <mxGeometry width="50" height="50" relative="1" as="geometry">
            <mxPoint x="410" y="380" as="sourcePoint" />
            <mxPoint x="880" y="585" as="targetPoint" />
          </mxGeometry>
        </mxCell>
        <mxCell id="iLdHwuGYIfyq-GvQSIh--32" value="" style="endArrow=none;html=1;rounded=0;exitX=1;exitY=1;exitDx=0;exitDy=0;" edge="1" parent="1" source="iLdHwuGYIfyq-GvQSIh--27" target="iLdHwuGYIfyq-GvQSIh--33">
          <mxGeometry width="50" height="50" relative="1" as="geometry">
            <mxPoint x="410" y="380" as="sourcePoint" />
            <mxPoint x="840" y="680" as="targetPoint" />
          </mxGeometry>
        </mxCell>
        <mxCell id="iLdHwuGYIfyq-GvQSIh--33" value="&lt;u&gt;MaSMH&lt;/u&gt;" style="ellipse;whiteSpace=wrap;html=1;" vertex="1" parent="1">
          <mxGeometry x="827" y="650" width="120" height="80" as="geometry" />
        </mxCell>
        <mxCell id="iLdHwuGYIfyq-GvQSIh--34" value="TenMH" style="ellipse;whiteSpace=wrap;html=1;" vertex="1" parent="1">
          <mxGeometry x="880" y="545" width="120" height="80" as="geometry" />
        </mxCell>
        <mxCell id="iLdHwuGYIfyq-GvQSIh--35" value="MaBP" style="ellipse;whiteSpace=wrap;html=1;" vertex="1" parent="1">
          <mxGeometry x="840" y="430" width="120" height="80" as="geometry" />
        </mxCell>
        <mxCell id="iLdHwuGYIfyq-GvQSIh--36" value="" style="rhombus;whiteSpace=wrap;html=1;" vertex="1" parent="1">
          <mxGeometry x="390" y="545" width="170" height="80" as="geometry" />
        </mxCell>
        <mxCell id="iLdHwuGYIfyq-GvQSIh--37" value="CungCap" style="rounded=0;whiteSpace=wrap;html=1;" vertex="1" parent="1">
          <mxGeometry x="414" y="555" width="116" height="60" as="geometry" />
        </mxCell>
        <mxCell id="iLdHwuGYIfyq-GvQSIh--38" value="" style="endArrow=none;html=1;rounded=0;exitX=0;exitY=0.5;exitDx=0;exitDy=0;entryX=1;entryY=0.5;entryDx=0;entryDy=0;" edge="1" parent="1" source="iLdHwuGYIfyq-GvQSIh--27" target="iLdHwuGYIfyq-GvQSIh--36">
          <mxGeometry width="50" height="50" relative="1" as="geometry">
            <mxPoint x="410" y="500" as="sourcePoint" />
            <mxPoint x="460" y="450" as="targetPoint" />
          </mxGeometry>
        </mxCell>
        <mxCell id="iLdHwuGYIfyq-GvQSIh--39" value="" style="endArrow=none;html=1;rounded=0;exitX=0;exitY=0.5;exitDx=0;exitDy=0;" edge="1" parent="1" source="iLdHwuGYIfyq-GvQSIh--36" target="iLdHwuGYIfyq-GvQSIh--40">
          <mxGeometry width="50" height="50" relative="1" as="geometry">
            <mxPoint x="410" y="500" as="sourcePoint" />
            <mxPoint x="250" y="585" as="targetPoint" />
          </mxGeometry>
        </mxCell>
        <mxCell id="iLdHwuGYIfyq-GvQSIh--40" value="NguoiCungCap" style="rounded=0;whiteSpace=wrap;html=1;" vertex="1" parent="1">
          <mxGeometry x="150" y="555" width="120" height="60" as="geometry" />
        </mxCell>
        <mxCell id="iLdHwuGYIfyq-GvQSIh--41" value="n" style="text;html=1;resizable=0;autosize=1;align=center;verticalAlign=middle;points=[];fillColor=none;strokeColor=none;rounded=0;" vertex="1" parent="1">
          <mxGeometry x="315" y="550" width="30" height="30" as="geometry" />
        </mxCell>
        <mxCell id="iLdHwuGYIfyq-GvQSIh--42" value="n" style="text;html=1;resizable=0;autosize=1;align=center;verticalAlign=middle;points=[];fillColor=none;strokeColor=none;rounded=0;" vertex="1" parent="1">
          <mxGeometry x="595" y="545" width="30" height="30" as="geometry" />
        </mxCell>
        <mxCell id="iLdHwuGYIfyq-GvQSIh--43" value="" style="endArrow=none;html=1;rounded=0;exitX=0;exitY=0.75;exitDx=0;exitDy=0;" edge="1" parent="1" source="iLdHwuGYIfyq-GvQSIh--40">
          <mxGeometry width="50" height="50" relative="1" as="geometry">
            <mxPoint x="410" y="490" as="sourcePoint" />
            <mxPoint x="40" y="600" as="targetPoint" />
          </mxGeometry>
        </mxCell>
        <mxCell id="iLdHwuGYIfyq-GvQSIh--44" value="" style="endArrow=none;html=1;rounded=0;exitX=0;exitY=0.5;exitDx=0;exitDy=0;" edge="1" parent="1" source="iLdHwuGYIfyq-GvQSIh--40" target="iLdHwuGYIfyq-GvQSIh--45">
          <mxGeometry width="50" height="50" relative="1" as="geometry">
            <mxPoint x="410" y="490" as="sourcePoint" />
            <mxPoint x="40" y="510" as="targetPoint" />
          </mxGeometry>
        </mxCell>
        <mxCell id="iLdHwuGYIfyq-GvQSIh--45" value="&lt;u&gt;MaNCC&lt;/u&gt;" style="ellipse;whiteSpace=wrap;html=1;" vertex="1" parent="1">
          <mxGeometry x="-80" y="440" width="120" height="80" as="geometry" />
        </mxCell>
        <mxCell id="iLdHwuGYIfyq-GvQSIh--46" value="TenNCC" style="ellipse;whiteSpace=wrap;html=1;" vertex="1" parent="1">
          <mxGeometry x="-80" y="555" width="120" height="80" as="geometry" />
        </mxCell>
        <mxCell id="iLdHwuGYIfyq-GvQSIh--47" value="DiaChi" style="ellipse;whiteSpace=wrap;html=1;" vertex="1" parent="1">
          <mxGeometry x="-80" y="690" width="120" height="80" as="geometry" />
        </mxCell>
        <mxCell id="iLdHwuGYIfyq-GvQSIh--48" value="" style="endArrow=none;html=1;rounded=0;exitX=0;exitY=1;exitDx=0;exitDy=0;" edge="1" parent="1" source="iLdHwuGYIfyq-GvQSIh--40" target="iLdHwuGYIfyq-GvQSIh--47">
          <mxGeometry width="50" height="50" relative="1" as="geometry">
            <mxPoint x="410" y="490" as="sourcePoint" />
            <mxPoint x="460" y="440" as="targetPoint" />
          </mxGeometry>
        </mxCell>
        <mxCell id="iLdHwuGYIfyq-GvQSIh--49" value="" style="endArrow=none;html=1;rounded=0;entryX=0.25;entryY=1;entryDx=0;entryDy=0;" edge="1" parent="1" target="iLdHwuGYIfyq-GvQSIh--37">
          <mxGeometry width="50" height="50" relative="1" as="geometry">
            <mxPoint x="360" y="710" as="sourcePoint" />
            <mxPoint x="460" y="580" as="targetPoint" />
          </mxGeometry>
        </mxCell>
        <mxCell id="iLdHwuGYIfyq-GvQSIh--50" value="" style="endArrow=none;html=1;rounded=0;exitX=0.5;exitY=1;exitDx=0;exitDy=0;" edge="1" parent="1" source="iLdHwuGYIfyq-GvQSIh--36">
          <mxGeometry width="50" height="50" relative="1" as="geometry">
            <mxPoint x="410" y="630" as="sourcePoint" />
            <mxPoint x="475" y="720" as="targetPoint" />
          </mxGeometry>
        </mxCell>
        <mxCell id="iLdHwuGYIfyq-GvQSIh--51" value="" style="endArrow=none;html=1;rounded=0;entryX=0.635;entryY=0.906;entryDx=0;entryDy=0;entryPerimeter=0;" edge="1" parent="1" target="iLdHwuGYIfyq-GvQSIh--36">
          <mxGeometry width="50" height="50" relative="1" as="geometry">
            <mxPoint x="600" y="720" as="sourcePoint" />
            <mxPoint x="560" y="660" as="targetPoint" />
          </mxGeometry>
        </mxCell>
        <mxCell id="iLdHwuGYIfyq-GvQSIh--52" value="MaNCC" style="ellipse;whiteSpace=wrap;html=1;" vertex="1" parent="1">
          <mxGeometry x="270" y="710" width="120" height="80" as="geometry" />
        </mxCell>
        <mxCell id="iLdHwuGYIfyq-GvQSIh--53" value="&lt;u&gt;MaCC&lt;/u&gt;" style="ellipse;whiteSpace=wrap;html=1;" vertex="1" parent="1">
          <mxGeometry x="415" y="720" width="120" height="80" as="geometry" />
        </mxCell>
        <mxCell id="iLdHwuGYIfyq-GvQSIh--54" value="MaSMH" style="ellipse;whiteSpace=wrap;html=1;" vertex="1" parent="1">
          <mxGeometry x="570" y="720" width="120" height="80" as="geometry" />
        </mxCell>
        <mxCell id="iLdHwuGYIfyq-GvQSIh--55" value="TenKH" style="ellipse;whiteSpace=wrap;html=1;" vertex="1" parent="1">
          <mxGeometry x="-80" y="1140" width="120" height="80" as="geometry" />
        </mxCell>
        <mxCell id="iLdHwuGYIfyq-GvQSIh--56" value="KhachHang" style="rounded=0;whiteSpace=wrap;html=1;" vertex="1" parent="1">
          <mxGeometry x="160" y="1150" width="120" height="60" as="geometry" />
        </mxCell>
        <mxCell id="iLdHwuGYIfyq-GvQSIh--57" value="&lt;u&gt;MaKH&lt;/u&gt;" style="ellipse;whiteSpace=wrap;html=1;" vertex="1" parent="1">
          <mxGeometry x="-80" y="970" width="120" height="80" as="geometry" />
        </mxCell>
        <mxCell id="iLdHwuGYIfyq-GvQSIh--58" value="DiaChi" style="ellipse;whiteSpace=wrap;html=1;" vertex="1" parent="1">
          <mxGeometry x="-80" y="1330" width="120" height="80" as="geometry" />
        </mxCell>
        <mxCell id="iLdHwuGYIfyq-GvQSIh--59" value="" style="endArrow=none;html=1;rounded=0;exitX=0;exitY=0.5;exitDx=0;exitDy=0;entryX=1;entryY=1;entryDx=0;entryDy=0;" edge="1" parent="1" source="iLdHwuGYIfyq-GvQSIh--56" target="iLdHwuGYIfyq-GvQSIh--57">
          <mxGeometry width="50" height="50" relative="1" as="geometry">
            <mxPoint x="150" y="1180" as="sourcePoint" />
            <mxPoint x="460" y="1170" as="targetPoint" />
          </mxGeometry>
        </mxCell>
        <mxCell id="iLdHwuGYIfyq-GvQSIh--60" value="" style="endArrow=none;html=1;rounded=0;exitX=0;exitY=0.5;exitDx=0;exitDy=0;entryX=1;entryY=0.5;entryDx=0;entryDy=0;" edge="1" parent="1" source="iLdHwuGYIfyq-GvQSIh--56" target="iLdHwuGYIfyq-GvQSIh--55">
          <mxGeometry width="50" height="50" relative="1" as="geometry">
            <mxPoint x="410" y="1220" as="sourcePoint" />
            <mxPoint x="460" y="1170" as="targetPoint" />
          </mxGeometry>
        </mxCell>
        <mxCell id="iLdHwuGYIfyq-GvQSIh--61" value="" style="endArrow=none;html=1;rounded=0;exitX=0;exitY=0.5;exitDx=0;exitDy=0;entryX=1;entryY=0;entryDx=0;entryDy=0;" edge="1" parent="1" source="iLdHwuGYIfyq-GvQSIh--56" target="iLdHwuGYIfyq-GvQSIh--58">
          <mxGeometry width="50" height="50" relative="1" as="geometry">
            <mxPoint x="410" y="1220" as="sourcePoint" />
            <mxPoint x="460" y="1170" as="targetPoint" />
          </mxGeometry>
        </mxCell>
        <mxCell id="iLdHwuGYIfyq-GvQSIh--62" value="DonDatHang" style="rounded=0;whiteSpace=wrap;html=1;" vertex="1" parent="1">
          <mxGeometry x="827" y="1320" width="120" height="60" as="geometry" />
        </mxCell>
        <mxCell id="iLdHwuGYIfyq-GvQSIh--63" value="Co" style="rhombus;whiteSpace=wrap;html=1;" vertex="1" parent="1">
          <mxGeometry x="515" y="1200" width="80" height="80" as="geometry" />
        </mxCell>
        <mxCell id="iLdHwuGYIfyq-GvQSIh--64" value="" style="endArrow=none;html=1;rounded=0;entryX=1;entryY=1;entryDx=0;entryDy=0;" edge="1" parent="1" target="iLdHwuGYIfyq-GvQSIh--56">
          <mxGeometry width="50" height="50" relative="1" as="geometry">
            <mxPoint x="510" y="1240" as="sourcePoint" />
            <mxPoint x="560" y="1220" as="targetPoint" />
          </mxGeometry>
        </mxCell>
        <mxCell id="iLdHwuGYIfyq-GvQSIh--65" value="" style="endArrow=none;html=1;rounded=0;exitX=0;exitY=0.5;exitDx=0;exitDy=0;entryX=1;entryY=0.5;entryDx=0;entryDy=0;" edge="1" parent="1" source="iLdHwuGYIfyq-GvQSIh--62" target="iLdHwuGYIfyq-GvQSIh--63">
          <mxGeometry width="50" height="50" relative="1" as="geometry">
            <mxPoint x="480" y="1270" as="sourcePoint" />
            <mxPoint x="530" y="1220" as="targetPoint" />
          </mxGeometry>
        </mxCell>
        <mxCell id="iLdHwuGYIfyq-GvQSIh--66" value="1" style="text;html=1;resizable=0;autosize=1;align=center;verticalAlign=middle;points=[];fillColor=none;strokeColor=none;rounded=0;" vertex="1" parent="1">
          <mxGeometry x="399" y="1185" width="30" height="30" as="geometry" />
        </mxCell>
        <mxCell id="iLdHwuGYIfyq-GvQSIh--67" value="n" style="text;html=1;resizable=0;autosize=1;align=center;verticalAlign=middle;points=[];fillColor=none;strokeColor=none;rounded=0;" vertex="1" parent="1">
          <mxGeometry x="695" y="1255" width="30" height="30" as="geometry" />
        </mxCell>
        <mxCell id="iLdHwuGYIfyq-GvQSIh--68" value="" style="endArrow=none;html=1;rounded=0;exitX=0;exitY=1;exitDx=0;exitDy=0;startArrow=none;" edge="1" parent="1" source="iLdHwuGYIfyq-GvQSIh--72">
          <mxGeometry width="50" height="50" relative="1" as="geometry">
            <mxPoint x="470" y="1270" as="sourcePoint" />
            <mxPoint x="720" y="1440" as="targetPoint" />
          </mxGeometry>
        </mxCell>
        <mxCell id="iLdHwuGYIfyq-GvQSIh--69" value="" style="endArrow=none;html=1;rounded=0;exitX=1;exitY=1;exitDx=0;exitDy=0;" edge="1" parent="1" source="iLdHwuGYIfyq-GvQSIh--62" target="iLdHwuGYIfyq-GvQSIh--71">
          <mxGeometry width="50" height="50" relative="1" as="geometry">
            <mxPoint x="470" y="1270" as="sourcePoint" />
            <mxPoint x="1040" y="1440" as="targetPoint" />
          </mxGeometry>
        </mxCell>
        <mxCell id="iLdHwuGYIfyq-GvQSIh--70" value="" style="endArrow=none;html=1;rounded=0;exitX=0.5;exitY=1;exitDx=0;exitDy=0;startArrow=none;" edge="1" parent="1" source="iLdHwuGYIfyq-GvQSIh--74">
          <mxGeometry width="50" height="50" relative="1" as="geometry">
            <mxPoint x="470" y="1270" as="sourcePoint" />
            <mxPoint x="887" y="1470" as="targetPoint" />
          </mxGeometry>
        </mxCell>
        <mxCell id="iLdHwuGYIfyq-GvQSIh--71" value="MaKH" style="ellipse;whiteSpace=wrap;html=1;" vertex="1" parent="1">
          <mxGeometry x="1020" y="1430" width="120" height="80" as="geometry" />
        </mxCell>
        <mxCell id="iLdHwuGYIfyq-GvQSIh--72" value="&lt;u&gt;SoHieuDDH&lt;/u&gt;" style="ellipse;whiteSpace=wrap;html=1;" vertex="1" parent="1">
          <mxGeometry x="605" y="1430" width="120" height="80" as="geometry" />
        </mxCell>
        <mxCell id="iLdHwuGYIfyq-GvQSIh--73" value="" style="endArrow=none;html=1;rounded=0;exitX=0;exitY=1;exitDx=0;exitDy=0;" edge="1" parent="1" source="iLdHwuGYIfyq-GvQSIh--62" target="iLdHwuGYIfyq-GvQSIh--72">
          <mxGeometry width="50" height="50" relative="1" as="geometry">
            <mxPoint x="827" y="1380" as="sourcePoint" />
            <mxPoint x="720" y="1440" as="targetPoint" />
          </mxGeometry>
        </mxCell>
        <mxCell id="iLdHwuGYIfyq-GvQSIh--74" value="NgayDH" style="ellipse;whiteSpace=wrap;html=1;" vertex="1" parent="1">
          <mxGeometry x="827" y="1450" width="120" height="80" as="geometry" />
        </mxCell>
        <mxCell id="iLdHwuGYIfyq-GvQSIh--75" value="" style="endArrow=none;html=1;rounded=0;exitX=0.5;exitY=1;exitDx=0;exitDy=0;" edge="1" parent="1" source="iLdHwuGYIfyq-GvQSIh--62" target="iLdHwuGYIfyq-GvQSIh--74">
          <mxGeometry width="50" height="50" relative="1" as="geometry">
            <mxPoint x="887" y="1380" as="sourcePoint" />
            <mxPoint x="887" y="1470" as="targetPoint" />
          </mxGeometry>
        </mxCell>
        <mxCell id="iLdHwuGYIfyq-GvQSIh--76" value="" style="endArrow=none;html=1;rounded=0;entryX=0.5;entryY=1;entryDx=0;entryDy=0;startArrow=none;" edge="1" parent="1" source="iLdHwuGYIfyq-GvQSIh--77" target="iLdHwuGYIfyq-GvQSIh--27">
          <mxGeometry width="50" height="50" relative="1" as="geometry">
            <mxPoint x="760" y="800" as="sourcePoint" />
            <mxPoint x="550" y="990" as="targetPoint" />
          </mxGeometry>
        </mxCell>
        <mxCell id="iLdHwuGYIfyq-GvQSIh--77" value="Nằm trong" style="rhombus;whiteSpace=wrap;html=1;" vertex="1" parent="1">
          <mxGeometry x="725" y="800" width="80" height="80" as="geometry" />
        </mxCell>
        <mxCell id="iLdHwuGYIfyq-GvQSIh--78" value="" style="endArrow=none;html=1;rounded=0;entryX=0.5;entryY=1;entryDx=0;entryDy=0;" edge="1" parent="1" target="iLdHwuGYIfyq-GvQSIh--77">
          <mxGeometry width="50" height="50" relative="1" as="geometry">
            <mxPoint x="760" y="800" as="sourcePoint" />
            <mxPoint x="730" y="615" as="targetPoint" />
            <Array as="points">
              <mxPoint x="710" y="850" />
            </Array>
          </mxGeometry>
        </mxCell>
        <mxCell id="iLdHwuGYIfyq-GvQSIh--79" value="" style="endArrow=none;html=1;rounded=0;entryX=0.5;entryY=1;entryDx=0;entryDy=0;exitX=0.433;exitY=-0.008;exitDx=0;exitDy=0;exitPerimeter=0;" edge="1" parent="1" source="iLdHwuGYIfyq-GvQSIh--80" target="iLdHwuGYIfyq-GvQSIh--77">
          <mxGeometry width="50" height="50" relative="1" as="geometry">
            <mxPoint x="780" y="950" as="sourcePoint" />
            <mxPoint x="750" y="890" as="targetPoint" />
          </mxGeometry>
        </mxCell>
        <mxCell id="iLdHwuGYIfyq-GvQSIh--80" value="ChiTietDonHang" style="rounded=0;whiteSpace=wrap;html=1;" vertex="1" parent="1">
          <mxGeometry x="725" y="960" width="120" height="60" as="geometry" />
        </mxCell>
        <mxCell id="iLdHwuGYIfyq-GvQSIh--81" value="" style="endArrow=none;html=1;rounded=0;exitX=0.425;exitY=1.025;exitDx=0;exitDy=0;exitPerimeter=0;" edge="1" parent="1" source="iLdHwuGYIfyq-GvQSIh--80" target="iLdHwuGYIfyq-GvQSIh--82">
          <mxGeometry width="50" height="50" relative="1" as="geometry">
            <mxPoint x="510" y="1040" as="sourcePoint" />
            <mxPoint x="560" y="990" as="targetPoint" />
          </mxGeometry>
        </mxCell>
        <mxCell id="iLdHwuGYIfyq-GvQSIh--82" value="Có" style="rhombus;whiteSpace=wrap;html=1;" vertex="1" parent="1">
          <mxGeometry x="760" y="1120" width="80" height="80" as="geometry" />
        </mxCell>
        <mxCell id="iLdHwuGYIfyq-GvQSIh--83" value="" style="endArrow=none;html=1;rounded=0;exitX=0.5;exitY=1;exitDx=0;exitDy=0;entryX=0.442;entryY=0.008;entryDx=0;entryDy=0;entryPerimeter=0;" edge="1" parent="1" source="iLdHwuGYIfyq-GvQSIh--82" target="iLdHwuGYIfyq-GvQSIh--62">
          <mxGeometry width="50" height="50" relative="1" as="geometry">
            <mxPoint x="510" y="1040" as="sourcePoint" />
            <mxPoint x="880" y="1310" as="targetPoint" />
          </mxGeometry>
        </mxCell>
        <mxCell id="iLdHwuGYIfyq-GvQSIh--84" value="" style="endArrow=none;html=1;rounded=0;exitX=1;exitY=0;exitDx=0;exitDy=0;" edge="1" parent="1" source="iLdHwuGYIfyq-GvQSIh--82">
          <mxGeometry width="50" height="50" relative="1" as="geometry">
            <mxPoint x="510" y="1140" as="sourcePoint" />
            <mxPoint x="920" y="1040" as="targetPoint" />
          </mxGeometry>
        </mxCell>
        <mxCell id="iLdHwuGYIfyq-GvQSIh--85" value="" style="endArrow=none;html=1;rounded=0;exitX=1;exitY=0.5;exitDx=0;exitDy=0;" edge="1" parent="1" source="iLdHwuGYIfyq-GvQSIh--82">
          <mxGeometry width="50" height="50" relative="1" as="geometry">
            <mxPoint x="490" y="1140" as="sourcePoint" />
            <mxPoint x="930" y="1100" as="targetPoint" />
          </mxGeometry>
        </mxCell>
        <mxCell id="iLdHwuGYIfyq-GvQSIh--86" value="" style="endArrow=none;html=1;rounded=0;exitX=1;exitY=0.5;exitDx=0;exitDy=0;entryX=0;entryY=0.5;entryDx=0;entryDy=0;" edge="1" parent="1" source="iLdHwuGYIfyq-GvQSIh--82" target="iLdHwuGYIfyq-GvQSIh--91">
          <mxGeometry width="50" height="50" relative="1" as="geometry">
            <mxPoint x="490" y="1140" as="sourcePoint" />
            <mxPoint x="920" y="1190" as="targetPoint" />
          </mxGeometry>
        </mxCell>
        <mxCell id="iLdHwuGYIfyq-GvQSIh--87" value="" style="endArrow=none;html=1;rounded=0;exitX=1;exitY=1;exitDx=0;exitDy=0;" edge="1" parent="1" source="iLdHwuGYIfyq-GvQSIh--82">
          <mxGeometry width="50" height="50" relative="1" as="geometry">
            <mxPoint x="490" y="1140" as="sourcePoint" />
            <mxPoint x="920" y="1240" as="targetPoint" />
          </mxGeometry>
        </mxCell>
        <mxCell id="iLdHwuGYIfyq-GvQSIh--88" value="" style="endArrow=none;html=1;rounded=0;exitX=0.5;exitY=1;exitDx=0;exitDy=0;" edge="1" parent="1" source="iLdHwuGYIfyq-GvQSIh--82" target="iLdHwuGYIfyq-GvQSIh--89">
          <mxGeometry width="50" height="50" relative="1" as="geometry">
            <mxPoint x="490" y="1140" as="sourcePoint" />
            <mxPoint x="910" y="1280" as="targetPoint" />
          </mxGeometry>
        </mxCell>
        <mxCell id="iLdHwuGYIfyq-GvQSIh--89" value="Đơn giá" style="ellipse;whiteSpace=wrap;html=1;" vertex="1" parent="1">
          <mxGeometry x="947" y="1290" width="120" height="80" as="geometry" />
        </mxCell>
        <mxCell id="iLdHwuGYIfyq-GvQSIh--90" value="SoLuongMua" style="ellipse;whiteSpace=wrap;html=1;" vertex="1" parent="1">
          <mxGeometry x="920" y="1210" width="120" height="80" as="geometry" />
        </mxCell>
        <mxCell id="iLdHwuGYIfyq-GvQSIh--92" value="" style="edgeStyle=orthogonalEdgeStyle;rounded=0;orthogonalLoop=1;jettySize=auto;html=1;" edge="1" parent="1" source="iLdHwuGYIfyq-GvQSIh--91" target="iLdHwuGYIfyq-GvQSIh--82">
          <mxGeometry relative="1" as="geometry" />
        </mxCell>
        <mxCell id="iLdHwuGYIfyq-GvQSIh--91" value="SoHieuDDH" style="ellipse;whiteSpace=wrap;html=1;" vertex="1" parent="1">
          <mxGeometry x="920" y="1135" width="120" height="80" as="geometry" />
        </mxCell>
        <mxCell id="iLdHwuGYIfyq-GvQSIh--93" value="&lt;u&gt;MaCTDH&lt;/u&gt;" style="ellipse;whiteSpace=wrap;html=1;" vertex="1" parent="1">
          <mxGeometry x="860" y="960" width="120" height="80" as="geometry" />
        </mxCell>
        <mxCell id="iLdHwuGYIfyq-GvQSIh--94" value="MSMH" style="ellipse;whiteSpace=wrap;html=1;" vertex="1" parent="1">
          <mxGeometry x="920" y="1050" width="120" height="80" as="geometry" />
        </mxCell>
        <mxCell id="iLdHwuGYIfyq-GvQSIh--95" value="N" style="text;html=1;resizable=0;autosize=1;align=center;verticalAlign=middle;points=[];fillColor=none;strokeColor=none;rounded=0;" vertex="1" parent="1">
          <mxGeometry x="725" y="905" width="30" height="30" as="geometry" />
        </mxCell>
        <mxCell id="iLdHwuGYIfyq-GvQSIh--97" value="1" style="text;html=1;resizable=0;autosize=1;align=center;verticalAlign=middle;points=[];fillColor=none;strokeColor=none;rounded=0;" vertex="1" parent="1">
          <mxGeometry x="765" y="705" width="30" height="30" as="geometry" />
        </mxCell>
        <mxCell id="iLdHwuGYIfyq-GvQSIh--98" value="n" style="text;html=1;resizable=0;autosize=1;align=center;verticalAlign=middle;points=[];fillColor=none;strokeColor=none;rounded=0;" vertex="1" parent="1">
          <mxGeometry x="755" y="1050" width="30" height="30" as="geometry" />
        </mxCell>
        <mxCell id="iLdHwuGYIfyq-GvQSIh--99" value="1" style="text;html=1;resizable=0;autosize=1;align=center;verticalAlign=middle;points=[];fillColor=none;strokeColor=none;rounded=0;" vertex="1" parent="1">
          <mxGeometry x="795" y="1235" width="30" height="30" as="geometry" />
        </mxCell>
      </root>
    </mxGraphModel>
  </diagram>
</mxfile>
